<?xml version="1.0" standalone="no"?>
<!DOCTYPE svg PUBLIC "-//W3C//DTD SVG 1.1//EN" "http://www.w3.org/Graphics/SVG/1.1/DTD/svg11.dtd" >
<svg xmlns="http://www.w3.org/2000/svg">
<metadata>
This is a custom SVG webfont generated by Font Squirrel.
Designer    : Adrian Frutiger
Foundry URL : httpwwwadobecomtype
</metadata>
<defs>
<font id="webfontdMX28Lq0" horiz-adv-x="556" >
<font-face units-per-em="1000" ascent="756" descent="-244" />
<missing-glyph horiz-adv-x="278" />
<glyph unicode=" "  horiz-adv-x="278" />
<glyph unicode="&#x09;" horiz-adv-x="278" />
<glyph unicode="&#xa0;" horiz-adv-x="278" />
<glyph unicode="!" horiz-adv-x="278" d="M281 708l-72 -510h-84l72 510h84zM155 114q25 0 40 -18q13 -14 13 -34q0 -4 -1 -8q-4 -24 -24.5 -42t-44.5 -18t-40 18q-12 14 -12 32q0 5 1 10q3 25 23 42.5t45 17.5z" />
<glyph unicode="&#x22;" horiz-adv-x="519" d="M216 468l34 240h72l-34 -240h-72zM363 468l34 240h72l-34 -240h-72z" />
<glyph unicode="#" d="M98 0l60 213h-98l9 66h108l42 152h-98l9 66h108l60 211h67l-60 -211h126l60 211h67l-60 -211h98l-9 -66h-107l-43 -152h98l-9 -66h-108l-60 -213h-67l60 213h-126l-60 -213h-67zM370 279l43 152h-126l-43 -152h126z" />
<glyph unicode="$" d="M244 -83l10 71q-144 0 -201 93l79 61q17 -33 53.5 -53.5t79.5 -22.5l36 254q-171 48 -171 174q0 14 2 29q11 81 76.5 135.5t148.5 61.5l9 66h48l-9 -66q56 0 105 -21t78 -60l-75 -60q-38 63 -119 63l-35 -249q38 -12 61 -21.5t52 -27t43.5 -36.5t22.5 -50q5 -18 5 -40 q0 -13 -2 -28q-12 -86 -80.5 -141.5t-158.5 -60.5l-10 -71h-48zM313 406l33 236q-50 -9 -84 -41t-41 -79q-1 -10 -1 -18q0 -34 18 -52q23 -24 75 -46zM347 307l-34 -241q53 6 91.5 39.5t45.5 80.5q1 10 1 19q0 36 -23 58q-28 27 -81 44z" />
<glyph unicode="%" horiz-adv-x="833" d="M115 545q10 73 67.5 124t131.5 51q73 0 117 -50q36 -42 36 -98q0 -13 -2 -27q-11 -73 -69 -124t-131 -51t-117 51q-35 41 -35 96q0 13 2 28zM187 545q-1 -8 -1 -15q0 -33 22 -58q26 -30 67 -30t76.5 30.5t41.5 72.5q1 7 1 13q0 34 -22 60q-27 30 -68 30q-42 0 -77 -30.5 t-40 -72.5zM468 163q10 73 68 124t132 51t117 -51q35 -41 35 -97q0 -13 -2 -27q-10 -73 -68 -124t-132 -51t-117 51q-35 41 -35 97q0 13 2 27zM540 163q-1 -8 -1 -15q0 -33 21 -58q27 -30 68 -30t76.5 30.5t41.5 72.5q1 8 1 15q0 33 -22 58q-27 30 -68 30t-76 -30.5 t-41 -72.5zM170 0l548 740l51 -32l-548 -740z" />
<glyph unicode="&#x26;" horiz-adv-x="722" d="M593 0l-82 102q-53 -57 -107 -85.5t-121 -28.5q-94 0 -151 55q-47 45 -47 114q0 16 2 33q19 133 186 205q-35 42 -52 79q-12 27 -12 58q0 13 2 27q10 76 69 119t136 43q76 0 121 -41q36 -33 36 -88q0 -13 -2 -28q-8 -60 -55.5 -102.5t-119.5 -77.5l128 -159l117 159h95 l-167 -218l139 -166h-115zM330 461l21 -26q34 17 46 24t38 25t37.5 37.5t15.5 44.5q1 7 1 13q0 29 -19 47q-23 23 -61 23q-43 0 -76 -26t-39 -69q-1 -5 -1 -11q0 -38 37 -82zM468 158l-151 186q-62 -32 -100.5 -66t-45.5 -85q-1 -10 -1 -20q0 -43 28 -75q36 -38 92 -38 q50 0 90 25t88 73z" />
<glyph unicode="'" horiz-adv-x="278" d="M169 468l34 240h72l-34 -240h-72z" />
<glyph unicode="(" horiz-adv-x="278" d="M238 -118l-59 -38q-57 97 -79 212q-12 67 -12 133q0 50 7 99q36 248 209 444l48 -40q-152 -176 -185 -404q-8 -56 -8 -106q0 -55 9 -102q18 -92 70 -198z" />
<glyph unicode=")" horiz-adv-x="278" d="M121 694l59 38q57 -98 78 -214q13 -64 13 -128q0 -51 -8 -102q-35 -247 -208 -444l-48 40q153 177 184 404q8 58 8 109q0 53 -9 99q-17 92 -69 198z" />
<glyph unicode="*" horiz-adv-x="444" d="M352 708l-21 -149l148 48l11 -58l-148 -48l73 -119l-55 -38l-72 123l-105 -123l-44 38l103 119l-134 48l27 58l136 -48l21 149h60z" />
<glyph unicode="+" horiz-adv-x="666" d="M110 270l9 66h228l32 228h66l-32 -228h228l-9 -66h-228l-32 -228h-66l32 228h-228z" />
<glyph unicode="," horiz-adv-x="278" d="M225 102l-115 -240h-77l101 240h91z" />
<glyph unicode="-" horiz-adv-x="333" d="M73 204l10 72h245l-10 -72h-245z" />
<glyph unicode="." horiz-adv-x="278" d="M155 114q25 0 40 -18q13 -14 13 -34q0 -4 -1 -8q-4 -24 -24.5 -42t-44.5 -18t-40 18q-12 14 -12 32q0 5 1 10q3 25 23 42.5t45 17.5z" />
<glyph unicode="/" horiz-adv-x="370" d="M469 726l-409 -769l-60 25l409 768z" />
<glyph unicode="0" d="M88 354q9 67 28 126t52 116t87.5 90.5t123.5 33.5q56 0 96.5 -23t61 -59t29.5 -86q10 -47 10 -93q0 -48 -8 -105q-10 -67 -29 -126t-52 -116t-87.5 -90.5t-123.5 -33.5q-56 0 -96.5 23t-61 59t-30.5 86q-8 45 -8 89v9q1 48 8 100zM172 354q-5 -37 -8 -71q-1 -14 -1 -30 q0 -22 3 -47q3 -43 14.5 -73.5t38.5 -51.5t67 -21t73 21t53 51.5t36 73.5t23.5 76.5t12.5 71.5q8 60 8 108q0 186 -123 186q-49 0 -87 -30t-59.5 -79.5t-33 -93t-17.5 -91.5z" />
<glyph unicode="1" d="M460 708l-100 -708h-84l84 600h-2l-142 -107l-41 61l212 154h73z" />
<glyph unicode="2" d="M50 0l13 96l304 260q64 55 91 89.5t33 82.5q2 11 2 21q0 40 -27 66q-32 33 -87 33q-53 0 -93 -30.5t-57 -82.5l-90 8q26 85 92.5 131t154.5 46q92 0 147 -50q44 -41 44 -109q0 -16 -2 -33q-7 -53 -36.5 -100.5t-56 -72.5t-79.5 -70l-247 -205v-2h361l-11 -78h-456z" />
<glyph unicode="3" d="M251 336l10 72h26q162 0 179 123q1 10 1 20q0 39 -23 65q-29 32 -83 32q-92 0 -141 -79l-77 31q34 58 93 89t129 31q90 0 143 -48q44 -40 44 -106q0 -15 -2 -31q-7 -55 -47.5 -100t-96.5 -62v-2q65 -11 98 -61q24 -37 24 -86q0 -15 -2 -31q-14 -97 -88.5 -151t-174.5 -54 q-177 0 -207 149l89 28q10 -57 39.5 -81t88.5 -24q61 0 108 39t56 100q2 13 2 24q0 54 -39 81q-48 32 -123 32h-26z" />
<glyph unicode="4" d="M519 708l-66 -468h102l-11 -78h-102l-23 -162h-84l23 162h-300l13 93l345 453h103zM369 240l52 370h-2l-278 -370h228z" />
<glyph unicode="5" d="M574 708l-11 -78h-289l-30 -191q38 17 93 17q101 0 154 -66q42 -52 42 -126q0 -20 -3 -41q-14 -104 -92.5 -169.5t-183.5 -65.5q-146 0 -191 129l89 32q12 -41 43.5 -65t75.5 -24q65 0 115 45.5t60 117.5q2 15 2 30q0 55 -34 89q-43 42 -120 42q-71 0 -150 -44l59 368 h371z" />
<glyph unicode="6" d="M494 708l-232 -295l2 -2q39 21 98 21q93 0 144 -62q42 -50 42 -122q0 -18 -3 -38q-15 -101 -90.5 -161.5t-178.5 -60.5t-162 60q-46 49 -46 122q0 19 3 40q8 56 30.5 100.5t63.5 98.5l231 299h98zM329 360q-66 0 -115.5 -41.5t-58.5 -108.5q-2 -14 -2 -27q0 -50 30 -82 q38 -41 103 -41t115 41.5t60 108.5q2 13 2 25q0 51 -31 84q-38 41 -103 41z" />
<glyph unicode="7" d="M580 708l-11 -78l-372 -630h-95l377 630h-342l11 78h432z" />
<glyph unicode="8" d="M151 535q12 82 76.5 133.5t151.5 51.5t137 -52q41 -41 41 -103q0 -14 -2 -30q-7 -52 -45 -97t-93 -59v-2q61 -13 93 -64q23 -39 23 -87q0 -15 -2 -31q-13 -94 -85.5 -150.5t-169.5 -56.5t-154 56q-45 46 -45 117q0 16 2 34q10 68 55.5 118.5t110.5 63.5v2q-50 14 -75 59 q-21 35 -21 75q0 11 2 22zM235 531q-2 -11 -2 -21q0 -37 23 -63q28 -33 80 -33t89.5 33t45.5 84q1 10 1 19q0 39 -22 65q-29 33 -81 33t-89.5 -33t-44.5 -84zM164 201q-1 -12 -1 -22q0 -47 28 -79q35 -40 95 -40t107 40t55 101q2 12 2 24q0 45 -28 77q-36 40 -96 40 t-106.5 -40t-55.5 -101z" />
<glyph unicode="9" d="M162 0l231 295l-1 2q-39 -21 -98 -21q-93 0 -145 62q-41 49 -41 120q0 19 3 40q14 101 89.5 161.5t178.5 60.5t161 -60q48 -49 48 -125q0 -17 -3 -37q-8 -57 -31 -101.5t-64 -97.5l-230 -299h-98zM327 348q65 0 114.5 41t59.5 109q2 14 2 27q0 49 -31 81q-38 42 -103 42 t-114.5 -41t-59.5 -109q-2 -14 -2 -27q0 -49 31 -81q38 -42 103 -42z" />
<glyph unicode=":" horiz-adv-x="278" d="M206 480q25 0 40 -18q13 -13 13 -32q0 -5 -1 -10q-4 -25 -24.5 -42.5t-43.5 -17.5q-24 0 -40 18q-13 14 -13 33q0 4 1 9q4 25 23.5 42.5t44.5 17.5zM155 114q25 0 40 -18q13 -14 13 -34q0 -4 -1 -8q-4 -24 -24.5 -42t-44.5 -18t-40 18q-12 14 -12 32q0 5 1 10 q3 25 23 42.5t45 17.5z" />
<glyph unicode=";" horiz-adv-x="278" d="M225 102l-115 -240h-77l101 240h91zM206 480q25 0 40 -18q13 -13 13 -32q0 -5 -1 -10q-4 -25 -24.5 -42.5t-43.5 -17.5q-24 0 -40 18q-13 14 -13 33q0 4 1 9q4 25 23.5 42.5t44.5 17.5z" />
<glyph unicode="&#x3c;" horiz-adv-x="666" d="M673 564l-9 -66l-468 -195l413 -195l-9 -66l-489 232l8 58z" />
<glyph unicode="=" horiz-adv-x="666" d="M121 348l9 66h522l-9 -66h-522zM99 192l9 66h522l-9 -66h-522z" />
<glyph unicode="&#x3e;" horiz-adv-x="666" d="M78 42l9 66l469 195l-414 195l9 66l490 -232l-8 -58z" />
<glyph unicode="?" horiz-adv-x="482" d="M217 198l9 63q5 36 16 59.5t24 37t49 44.5q4 4 22.5 20t24.5 22t19.5 21t19.5 25t12.5 25t8.5 30q2 11 2 21q0 35 -20 58q-24 30 -73 30t-86 -29.5t-51 -79.5l-89 10q24 80 89 125.5t148 45.5q85 0 134 -47q38 -38 38 -99q0 -15 -2 -32q-4 -32 -16 -58t-35 -52t-39 -40 l-51 -43q-36 -30 -47 -49t-17 -62l-6 -46h-84zM247 114q25 0 40 -18q13 -14 13 -34q0 -4 -1 -8q-4 -24 -24.5 -42t-44.5 -18t-40 18q-12 14 -12 32q0 5 1 10q3 25 23 42.5t45 17.5z" />
<glyph unicode="@" horiz-adv-x="800" d="M303 293q-1 -9 -1 -18q0 -29 16 -51q21 -27 59 -27q61 0 118 72t66 140q1 9 1 17q0 27 -16 49q-20 28 -52 28q-66 0 -123.5 -69.5t-67.5 -140.5zM696 550l-123 -283q-12 -23 -17 -50q-1 -11 4 -15.5t18 -4.5q49 0 104 68.5t66 149.5q3 21 3 40q0 86 -59 145 q-71 72 -180 72q-129 0 -231.5 -94t-120.5 -224q-4 -26 -4 -50q0 -101 64 -176q78 -92 203 -92q74 0 147.5 33t121.5 88h63q-59 -81 -150.5 -128t-189.5 -47q-157 0 -250 108q-75 87 -75 206q0 28 4 58q22 155 146.5 263.5t279.5 108.5q140 0 226 -87q72 -72 72 -175 q0 -21 -3 -44q-17 -121 -106.5 -205t-168.5 -84q-27 0 -42 17q-13 14 -13 37q0 5 1 12h-2q-66 -66 -135 -66q-63 0 -95 45q-26 34 -26 82q0 14 2 28q16 110 94 196.5t179 86.5q81 0 99 -82h2l27 63h65z" />
<glyph unicode="A" horiz-adv-x="704" d="M6 0l412 708h79l201 -708h-98l-48 174h-354l-97 -174h-95zM531 252l-91 348h-2l-196 -348h289z" />
<glyph unicode="B" horiz-adv-x="630" d="M88 0l100 708h216q63 0 111 -15.5t78 -56.5q23 -31 23 -75q0 -13 -2 -27q-8 -60 -46.5 -101t-99.5 -59l-1 -2q68 -6 107 -56q31 -39 31 -91q0 -13 -2 -27q-8 -56 -37.5 -96.5t-74 -61.5t-92 -30.5t-100.5 -9.5h-211zM261 630l-32 -222h116q162 0 178 115q1 10 1 19 q0 45 -32 64q-39 24 -106 24h-125zM218 330l-35 -252h142q70 0 125 30.5t63 92.5q2 12 2 22q0 32 -17 55q-21 30 -55.5 41t-80.5 11h-144z" />
<glyph unicode="C" horiz-adv-x="704" d="M743 615l-80 -53q-25 42 -69 64t-96 22q-116 0 -205 -87.5t-106 -206.5q-4 -26 -4 -51q0 -92 51 -159q63 -84 181 -84q128 0 219 99l56 -53q-109 -124 -286 -124q-153 0 -241 106q-70 85 -70 204q0 30 4 62q22 158 139 265t273 107q164 0 234 -111z" />
<glyph unicode="D" horiz-adv-x="741" d="M75 0l100 708h272q56 0 110.5 -19.5t103 -59t72.5 -111.5q16 -46 16 -101q0 -30 -5 -63q-11 -75 -42.5 -136.5t-73 -101t-92.5 -66.5t-98 -38.5t-91 -11.5h-272zM248 630l-78 -552h160q129 0 216.5 68.5t107.5 207.5q4 30 4 57q0 97 -53 151q-68 68 -197 68h-160z" />
<glyph unicode="E" horiz-adv-x="593" d="M88 0l100 708h445l-11 -78h-361l-32 -222h337l-11 -78h-337l-35 -252h379l-11 -78h-463z" />
<glyph unicode="F" d="M88 0l100 708h439l-11 -78h-355l-33 -234h330l-11 -78h-330l-45 -318h-84z" />
<glyph unicode="G" horiz-adv-x="778" d="M746 396l-49 -348q-129 -66 -275 -66q-166 0 -257 103q-73 82 -73 205q0 31 5 64q23 164 147 268t286 104q159 0 237 -93l-72 -66q-30 39 -78.5 60t-103.5 21q-122 0 -215 -83t-111 -211q-4 -26 -4 -50q0 -95 56 -161q70 -83 199 -83q95 0 182 41l31 217h-163l11 78h247z " />
<glyph unicode="H" horiz-adv-x="722" d="M88 0l100 708h84l-43 -300h378l43 300h84l-100 -708h-84l46 330h-378l-46 -330h-84z" />
<glyph unicode="I" horiz-adv-x="260" d="M88 0l100 708h84l-100 -708h-84z" />
<glyph unicode="J" horiz-adv-x="482" d="M494 708l-74 -525q-12 -82 -69.5 -141.5t-161.5 -59.5q-76 0 -120 38.5t-47 113.5l86 17q2 -43 26 -67t67 -24q117 0 139 152l70 496h84z" />
<glyph unicode="K" horiz-adv-x="630" d="M88 0l100 708h84l-43 -306h12l365 306h121l-396 -323l313 -385h-123l-286 360h-12l-51 -360h-84z" />
<glyph unicode="L" horiz-adv-x="500" d="M88 0l100 708h84l-89 -630h324l-11 -78h-408z" />
<glyph unicode="M" horiz-adv-x="907" d="M88 0l100 708h125l162 -555h2l320 555h122l-100 -708h-84l83 594h-2l-337 -594h-51l-171 594h-2l-83 -594h-84z" />
<glyph unicode="N" horiz-adv-x="778" d="M88 0l100 708h106l327 -588h2l83 588h84l-100 -708h-106l-327 588h-2l-83 -588h-84z" />
<glyph unicode="O" horiz-adv-x="834" d="M414 -18q-161 0 -250 106q-72 83 -72 202q0 31 5 64q23 161 142 266.5t280 105.5t251 -106q72 -84 72 -203q0 -30 -5 -63q-23 -161 -142.5 -266.5t-280.5 -105.5zM425 60q123 0 213.5 85t108.5 209q4 26 4 51q0 91 -53 158q-67 85 -190 85t-213 -85t-108 -209 q-4 -26 -4 -51q0 -91 53 -158q66 -85 189 -85z" />
<glyph unicode="P" horiz-adv-x="593" d="M88 0l100 708h210q52 0 93 -10t73.5 -31.5t47.5 -60.5q9 -25 9 -56q0 -17 -3 -36q-8 -55 -35 -95.5t-66 -61t-78 -30t-80 -9.5h-142l-45 -318h-84zM261 630l-33 -234h142q65 0 107.5 29.5t50.5 87.5q2 11 2 21q0 43 -28 66q-34 30 -99 30h-142z" />
<glyph unicode="Q" horiz-adv-x="834" d="M832 72l-10 -72h-411q-155 0 -245 104q-72 84 -72 200q0 29 4 59q22 154 141 258.5t274 104.5t245 -104q72 -84 72 -200q0 -29 -4 -59q-13 -93 -71.5 -174.5t-141.5 -114.5v-2h219zM188 363q-3 -24 -3 -47q0 -90 53 -156q67 -82 184 -82t207 82.5t107 202.5q3 24 3 47 q0 90 -53 156q-66 82 -184 82t-207.5 -82.5t-106.5 -202.5z" />
<glyph unicode="R" horiz-adv-x="611" d="M88 0l100 708h181q47 0 82 -3.5t73 -15t60.5 -32t33.5 -57.5q8 -22 8 -50q0 -18 -3 -37q-10 -76 -64 -125t-139 -62l155 -326h-103l-147 318h-108l-45 -318h-84zM261 630l-33 -234h75q32 0 49 0.5t47.5 3.5t48.5 10.5t38 20t31.5 33.5t15.5 49q2 11 2 21q0 33 -19 54 q-23 28 -56 35t-81 7h-118z" />
<glyph unicode="S" d="M583 643l-77 -60q-32 65 -120 65q-62 0 -111 -30t-57 -89q-1 -10 -1 -18q0 -35 22 -57q28 -28 110 -55q40 -13 62.5 -22t52 -27t43.5 -37.5t23 -51.5q4 -19 4 -40q0 -15 -2 -32q-14 -100 -94.5 -153.5t-184.5 -53.5q-67 0 -122 24t-82 74l81 59q16 -38 54 -58.5t85 -20.5 q59 0 111.5 33t60.5 90q2 12 2 22q0 40 -25 59q-31 25 -124 57l-18 6q-54 19 -86 39.5t-52 59.5q-13 29 -13 65q0 15 2 31q14 97 92 150.5t178 53.5q127 0 186 -83z" />
<glyph unicode="T" horiz-adv-x="574" d="M663 708l-11 -78h-234l-89 -630h-84l89 630h-234l11 78h552z" />
<glyph unicode="U" horiz-adv-x="704" d="M719 708l-62 -438q-18 -127 -94.5 -207.5t-213.5 -80.5q-71 0 -121 23.5t-73.5 63t-32.5 91.5q-5 24 -5 49q0 30 6 61l62 438h84l-60 -426q-5 -26 -5 -52q0 -16 2 -31q5 -40 19.5 -71t49 -49.5t85.5 -18.5q98 0 149.5 62.5t65.5 159.5l60 426h84z" />
<glyph unicode="V" horiz-adv-x="611" d="M262 0l-171 708h95l136 -582h2l307 582h89l-377 -708h-81z" />
<glyph unicode="W" horiz-adv-x="963" d="M213 0l-107 708h93l78 -588h2l257 588h94l90 -588h2l247 588h88l-308 -708h-91l-91 600h-2l-260 -600h-92z" />
<glyph unicode="X" horiz-adv-x="630" d="M-3 0l310 373l-190 335h108l152 -277l228 277h105l-286 -335l209 -373h-111l-166 314l-255 -314h-104z" />
<glyph unicode="Y" horiz-adv-x="594" d="M255 0l43 305l-207 403h107l154 -320l250 320h101l-321 -403l-43 -305h-84z" />
<glyph unicode="Z" horiz-adv-x="574" d="M29 0l11 75l487 555h-403l11 78h505l-11 -72l-487 -558h414l-11 -78h-516z" />
<glyph unicode="[" horiz-adv-x="259" d="M296 732l-9 -60h-93l-107 -768h93l-9 -60h-165l125 888h165z" />
<glyph unicode="\" horiz-adv-x="370" d="M298 -43l-193 769l66 24l193 -768z" />
<glyph unicode="]" horiz-adv-x="259" d="M160 672l9 60h165l-125 -888h-165l9 60h93l107 768h-93z" />
<glyph unicode="^" horiz-adv-x="666" d="M119 275l284 433h60l162 -433h-74l-130 349l-228 -349h-74z" />
<glyph unicode="_" horiz-adv-x="500" d="M-18 -125l7 50h500l-7 -50h-500z" />
<glyph unicode="`" horiz-adv-x="240" d="M185 708l83 -144h-71l-122 144h110z" />
<glyph unicode="a" horiz-adv-x="519" d="M167 357l-42 51q81 72 196 72q102 0 143 -49q30 -36 30 -101q0 -22 -4 -48l-29 -201q-4 -40 -4 -70v-11h-75v11q0 22 5 59h-2q-65 -82 -166 -82q-75 0 -119 36q-37 31 -37 81q0 11 2 22q5 37 22.5 65.5t45 46t56 28.5t66.5 16t65.5 6.5t62.5 1.5h30l2 14q1 10 1 20 q0 35 -21 57q-27 26 -82 26q-83 0 -146 -51zM404 225h-78q-163 0 -176 -90q-1 -8 -1 -15q0 -31 21 -46q25 -20 72 -20q65 0 106 40.5t51 100.5z" />
<glyph unicode="b" horiz-adv-x="611" d="M70 0l106 756h78l-50 -356h2q80 80 179 80q109 0 168 -70q47 -55 47 -134q0 -20 -3 -42q-15 -105 -92.5 -175.5t-176.5 -70.5q-61 0 -105.5 27t-60.5 68h-2l-12 -83h-78zM181 234q-2 -16 -2 -32q0 -54 30 -92q39 -50 113 -50t127 49.5t64 124.5q2 16 2 32q0 54 -30 92 q-39 50 -114 50q-74 0 -126.5 -49.5t-63.5 -124.5z" />
<glyph unicode="c" horiz-adv-x="482" d="M526 406l-70 -55q-38 57 -110 57q-76 0 -124 -49t-58 -125q-3 -17 -3 -32q0 -53 29 -92q37 -50 107 -50q77 0 128 58l50 -55q-75 -75 -188 -75q-108 0 -165 68q-45 55 -45 134q0 21 3 44q15 107 92 176.5t184 69.5q112 0 170 -74z" />
<glyph unicode="d" horiz-adv-x="611" d="M463 0l12 83h-2q-29 -42 -81 -68.5t-113 -26.5q-99 0 -157 70q-45 56 -45 134q0 20 3 42q15 107 93 176.5t187 69.5q99 0 157 -80h2l50 356h78l-106 -756h-78zM496 234q2 16 2 32q0 54 -30 92q-39 50 -114 50q-74 0 -126.5 -49.5t-63.5 -124.5q-2 -16 -2 -32 q0 -54 30 -92q39 -50 113 -50t127 49.5t64 124.5z" />
<glyph unicode="e" d="M451 131l53 -46q-89 -97 -222 -97q-107 0 -162 70q-43 56 -43 133q0 20 3 43q15 108 92.5 177t181.5 69q101 0 152 -65q40 -50 40 -128q0 -25 -4 -52l-3 -25h-378q-1 -7 -1 -15q0 -52 33 -91q37 -44 99 -44q94 0 159 71zM170 276h294q1 9 1 18q0 48 -27 78q-33 36 -97 36 t-109.5 -36t-61.5 -96z" />
<glyph unicode="f" horiz-adv-x="315" d="M114 0l57 402h-102l9 66h102l15 105q27 195 193 195q37 0 58 -12l-21 -70q-27 10 -51 10q-55 0 -74 -33t-30 -107l-12 -88h114l-9 -66h-114l-57 -402h-78z" />
<glyph unicode="g" horiz-adv-x="611" d="M607 468l-63 -447q-18 -127 -93.5 -194t-198.5 -67q-139 0 -217 89l65 64q63 -81 162 -81q177 0 204 189l8 60h-2q-32 -43 -80 -65t-97 -22q-110 0 -170 68q-48 54 -48 132q0 19 3 40q16 114 93 180t190 66q50 0 93.5 -24t59.5 -68h2l11 80h78zM164 234q-2 -14 -2 -27 q0 -54 33 -93q41 -48 110 -48q77 0 129.5 49.5t61.5 120.5q2 16 2 31q0 55 -31 93q-40 48 -114 48q-73 0 -125.5 -49.5t-63.5 -124.5z" />
<glyph unicode="h" d="M74 0l106 756h78l-49 -353h2q22 31 65.5 54t94.5 23q89 0 127 -52q28 -39 28 -98q0 -20 -3 -41l-41 -289h-78l39 281q2 16 2 30q0 39 -16 63q-22 34 -75 34q-73 0 -115.5 -48t-54.5 -132l-32 -228h-78z" />
<glyph unicode="i" horiz-adv-x="240" d="M81 0l66 468h78l-66 -468h-78zM154 651q4 23 23 40t43 17t38 -17q11 -13 11 -30q0 -5 -1 -10q-3 -25 -21.5 -41t-43.5 -16t-39 16q-11 13 -11 32q0 4 1 9z" />
<glyph unicode="j" horiz-adv-x="240" d="M225 468l-81 -573q-3 -21 -12 -42t-26 -43t-48 -36t-72 -14q-32 0 -52 10l18 68q20 -6 37 -6q41 0 58.5 26t23.5 73l76 537h78zM154 651q4 23 23 40t43 17t38 -17q11 -13 11 -30q0 -5 -1 -10q-3 -25 -21.5 -41t-43.5 -16t-39 16q-11 13 -11 32q0 4 1 9z" />
<glyph unicode="k" horiz-adv-x="500" d="M74 0l106 756h78l-69 -494l242 206h111l-256 -213l213 -255h-115l-197 246l-35 -246h-78z" />
<glyph unicode="l" horiz-adv-x="240" d="M81 0l106 756h78l-106 -756h-78z" />
<glyph unicode="m" horiz-adv-x="852" d="M74 0l50 357q3 21 6 58t6 53h74q-2 -13 -4.5 -38.5t-4.5 -38.5h2q22 37 67.5 63t100.5 26q36 0 62 -8.5t40.5 -24.5t21 -28t12.5 -28q68 89 160 89q96 0 130 -50q25 -36 25 -96q0 -23 -4 -50l-40 -284h-78l39 280q2 17 2 33q0 95 -98 95q-51 0 -91 -38t-49 -100l-38 -270 h-78l37 265q4 31 4 55q0 35 -10 55q-16 33 -64 33q-73 0 -115.5 -48t-54.5 -132l-32 -228h-78z" />
<glyph unicode="n" d="M74 0l50 357q3 21 6 58t6 53h74q-2 -13 -4.5 -38.5t-4.5 -38.5h2q22 37 67.5 63t100.5 26q89 0 127 -52q28 -39 28 -98q0 -20 -3 -41l-41 -289h-78l39 281q2 16 2 30q0 39 -16 63q-22 34 -75 34q-73 0 -115.5 -48t-54.5 -132l-32 -228h-78z" />
<glyph unicode="o" horiz-adv-x="594" d="M80 234q15 109 95 177.5t189 68.5t170 -68q49 -55 49 -137q0 -19 -3 -41q-16 -109 -96 -177.5t-189 -68.5t-170 68q-48 55 -48 134q0 21 3 44zM164 234q-2 -16 -2 -32q0 -54 30 -92q39 -50 113 -50t127 49.5t64 124.5q2 16 2 32q0 54 -30 92q-39 50 -114 50 q-74 0 -126.5 -49.5t-63.5 -124.5z" />
<glyph unicode="p" horiz-adv-x="611" d="M38 -228l98 696h78l-10 -68h2q80 80 179 80q109 0 168 -70q47 -55 47 -134q0 -20 -3 -42q-15 -105 -92.5 -175.5t-176.5 -70.5q-61 0 -105.5 27t-60.5 68h-2l-44 -311h-78zM181 234q-2 -16 -2 -32q0 -54 30 -92q39 -50 113 -50t127 49.5t64 124.5q2 16 2 32q0 54 -30 92 q-39 50 -114 50q-74 0 -126.5 -49.5t-63.5 -124.5z" />
<glyph unicode="q" horiz-adv-x="611" d="M607 468l-98 -696h-78l42 296h-2q-80 -80 -180 -80q-109 0 -167 70q-47 55 -47 134q0 20 3 42q15 105 92 175.5t176 70.5q61 0 106 -27t61 -68h2l12 83h78zM496 234q2 16 2 32q0 54 -30 92q-39 50 -114 50q-74 0 -126.5 -49.5t-63.5 -124.5q-2 -16 -2 -32q0 -54 30 -92 q39 -50 113 -50t127 49.5t64 124.5z" />
<glyph unicode="r" horiz-adv-x="352" d="M74 0l50 357q3 21 6 58t6 53h74q-2 -13 -4.5 -38.5t-4.5 -38.5h2q22 37 67.5 63t100.5 26q18 0 32 -5l-16 -79q-19 6 -41 6q-69 0 -109.5 -45.5t-52.5 -128.5l-32 -228h-78z" />
<glyph unicode="s" horiz-adv-x="426" d="M33 75l68 48q43 -63 111 -63q41 0 74.5 18t39.5 54q1 6 1 11q0 11 -5 20q-6 13 -21.5 21t-28.5 12.5t-36 9.5q-33 8 -50.5 13t-41 15.5t-34.5 23.5t-18 34q-4 14 -4 30q0 9 2 20q9 65 66.5 101.5t127.5 36.5q114 0 148 -85l-72 -43q-25 56 -91 56q-36 0 -67 -17 q-34 -19 -34 -53q0 -23 26 -37q29 -15 83 -26q70 -14 106 -45q29 -24 29 -70q0 -12 -2 -25q-10 -74 -70 -110.5t-138 -36.5q-62 0 -102.5 19.5t-66.5 67.5z" />
<glyph unicode="t" horiz-adv-x="352" d="M396 468l-9 -66h-138l-33 -234q-6 -44 -6 -60q0 -20 13 -34q14 -14 47 -14q39 0 72 16l-7 -71q-41 -17 -94 -17q-77 0 -97 38q-14 25 -14 68q0 23 4 51l37 257h-102l9 66h102l18 133h78l-18 -133h138z" />
<glyph unicode="u" d="M548 468l-50 -357q-3 -24 -6.5 -61.5t-5.5 -49.5h-74q2 13 4.5 38.5t4.5 38.5h-2q-23 -37 -68.5 -63t-100.5 -26q-89 0 -126 52q-28 38 -28 96q0 20 3 43l41 289h78l-40 -281q-2 -16 -2 -30q0 -39 16 -63q22 -34 75 -34q73 0 116 48t55 132l32 228h78z" />
<glyph unicode="v" horiz-adv-x="482" d="M538 468l-251 -468h-86l-125 468h91l94 -367h2l191 367h84z" />
<glyph unicode="w" horiz-adv-x="741" d="M793 468l-217 -468h-77l-82 360h-2l-169 -360h-80l-86 468h86l56 -360h2l172 360h82l72 -360h2l157 360h84z" />
<glyph unicode="x" horiz-adv-x="500" d="M3 0l227 252l-137 216h102l100 -168l141 168h95l-192 -216l158 -252h-103l-120 202l-174 -202h-97z" />
<glyph unicode="y" horiz-adv-x="482" d="M538 468l-307 -575q-36 -69 -73 -101t-102 -32q-44 0 -68 12l20 68q20 -8 53 -8q35 0 57 19t41 58l45 88l-128 471h91l93 -367h2l191 367h85z" />
<glyph unicode="z" horiz-adv-x="444" d="M30 0l9 61l323 341h-263l9 66h365l-9 -60l-323 -342h282l-9 -66h-384z" />
<glyph unicode="{" horiz-adv-x="333" d="M397 732l-9 -60h-54q-48 0 -60 -79l-24 -176q-5 -31 -18.5 -56.5t-30.5 -39.5t-30.5 -21.5t-24.5 -10.5l-1 -2q28 -4 53 -34q17 -22 17 -63q0 -15 -2 -32l-24 -175q-2 -15 -2 -28q0 -51 40 -51h54l-9 -60h-70q-41 0 -68 34q-21 26 -21 66q0 12 2 25l24 175q2 13 2 24 q0 35 -17 58q-21 32 -55 32l9 60q33 0 64 31.5t38 81.5l24 176q8 57 46 91t77 34h70z" />
<glyph unicode="|" horiz-adv-x="368" d="M202 832h65v-1109h-65v1109z" />
<glyph unicode="}" horiz-adv-x="333" d="M133 672l9 60h70q39 0 67 -34q22 -26 22 -67q0 -11 -2 -24l-24 -176q-2 -12 -2 -23q0 -34 17 -58q22 -32 55 -32l-9 -60q-34 0 -64.5 -31.5t-37.5 -82.5l-24 -175q-8 -57 -45 -91t-78 -34h-70l9 60h54q48 0 60 79l24 175q9 64 42.5 94.5t61.5 34.5l1 2q-28 7 -52 38 q-18 23 -18 62q0 13 2 28l24 176q2 15 2 28q0 51 -40 51h-54z" />
<glyph unicode="~" horiz-adv-x="666" d="M582 372l27 -48q-25 -29 -40 -43.5t-42.5 -29.5t-56.5 -15q-36 0 -98 30l-24 12q-21 11 -29 14t-24.5 7.5t-31.5 4.5q-52 0 -94 -70l-26 48q25 29 39 43.5t41.5 29.5t56.5 15q36 0 98 -30l24 -12q21 -11 29 -14t24.5 -7.5t31.5 -4.5q51 0 95 70z" />
<glyph unicode="&#xa1;" horiz-adv-x="278" d="M66 -222l71 510h84l-71 -510h-84zM191 372q-25 0 -40 18q-12 13 -12 32q0 5 1 10q3 24 23.5 42t44.5 18t40 -18q12 -15 12 -34v-8q-4 -25 -24 -42.5t-45 -17.5z" />
<glyph unicode="&#xa2;" d="M286 61l48 345q-62 -12 -101.5 -59t-48.5 -113q-2 -16 -2 -31q0 -45 20 -81q28 -48 84 -61zM266 -78l9 66q-93 12 -141 79q-37 52 -37 124q0 20 3 43q14 99 81 166.5t163 76.5l10 69h48l-10 -66q101 -5 154 -74l-70 -55q-35 51 -94 57l-49 -348q66 4 112 58l50 -55 q-68 -68 -172 -75l-9 -66h-48z" />
<glyph unicode="&#xa3;" d="M57 0l11 78h108l35 252h-96l10 66h96l11 80q17 124 84 184t164 60q100 0 152 -62l-63 -59q-44 49 -101 49q-70 0 -105.5 -45t-46.5 -129l-11 -78h162l-10 -66h-162l-35 -252h246l-11 -78h-438z" />
<glyph unicode="&#xa4;" d="M156 354q-2 -13 -2 -26q0 -54 36 -98q43 -54 113 -54t128.5 54t68.5 124q2 14 2 27q0 56 -36 99q-43 52 -113 52q-71 0 -129 -52.5t-68 -125.5zM49 148l62 55q-36 54 -36 117q0 17 3 34q12 88 75 152l-46 54l50 44l46 -53q76 53 160 53q83 0 144 -53l62 53l38 -44 l-62 -54q36 -51 36 -116q0 -18 -3 -36q-12 -84 -75 -151l46 -55l-50 -44l-47 55q-78 -55 -159 -55q-80 0 -145 55l-61 -55z" />
<glyph unicode="&#xa5;" d="M236 0l24 174h-159l9 60h159l10 71l-7 16h-150l9 60h114l-145 327h100l132 -327l224 327h100l-237 -327h114l-9 -60h-150l-11 -16l-10 -71h159l-9 -60h-159l-24 -174h-84z" />
<glyph unicode="&#xa6;" horiz-adv-x="367" d="M202 749h64v-388h-64v388zM202 194h64v-387h-64v387z" />
<glyph unicode="&#xa7;" d="M552 632l-81 -41q-7 31 -33 47t-61 16q-43 0 -77 -22t-40 -64q-1 -7 -1 -14q0 -38 35 -58l91 -49q31 -16 50 -28t42 -32.5t32 -46.5q6 -18 6 -39q0 -9 -1 -19q-13 -85 -105 -133q54 -38 54 -101q0 -10 -2 -22q-12 -81 -78.5 -125.5t-149.5 -44.5q-68 0 -116.5 31 t-63.5 92l82 36q14 -87 114 -87q46 0 80.5 23t40.5 69q1 5 1 9q0 20 -11 35q-12 20 -28 30.5t-39 21.5q-6 3 -9 4l-113 64q-58 32 -58 99q0 11 2 23q13 91 121 140q-62 38 -62 100q0 9 1 18q11 76 74 119t141 43q57 0 101.5 -23.5t60.5 -70.5zM268 226l83 -43 q28 11 50.5 35.5t26.5 51.5q1 7 1 13q0 13 -4 23q-6 17 -21 30.5t-27 21.5t-31 18l-54 29q-28 -11 -43.5 -18.5t-33 -25.5t-20.5 -42q-1 -7 -1 -13q0 -26 16 -42q20 -19 58 -38z" />
<glyph unicode="&#xa8;" horiz-adv-x="240" d="M117 684q22 0 36 -16q12 -13 12 -30q0 -4 -1 -8q-4 -23 -22 -38.5t-40 -15.5q-23 0 -36 16q-11 12 -11 28q0 5 1 10q3 22 21 38t40 16zM315 684q22 0 36 -16q12 -13 12 -30q0 -4 -1 -8q-4 -23 -22 -38.5t-40 -15.5q-23 0 -36 16q-11 12 -11 28q0 5 1 10q3 22 21 38t40 16 z" />
<glyph unicode="&#xa9;" horiz-adv-x="800" d="M578 282h62q-26 -72 -82 -114t-125 -42q-100 0 -152 64q-41 51 -41 124q0 19 3 40q14 101 82 164t169 63q73 0 118.5 -39.5t46.5 -111.5h-61q-2 42 -32.5 69.5t-78.5 27.5q-72 0 -119.5 -48.5t-58.5 -124.5q-2 -16 -2 -30q0 -53 28 -93q36 -51 105 -51q49 0 86.5 29 t51.5 73zM78 354q15 104 77.5 189.5t154.5 134t192 48.5q153 0 248 -108q76 -87 76 -206q0 -28 -4 -58q-22 -157 -147 -264.5t-278 -107.5q-154 0 -247 108q-76 87 -76 206q0 28 4 58zM144 354q-4 -27 -4 -53q0 -100 60 -173q76 -92 205 -92q128 0 230 91.5t121 226.5 q4 27 4 52q0 100 -62 174q-76 92 -204 92q-129 0 -230 -91.5t-120 -226.5z" />
<glyph unicode="&#xaa;" horiz-adv-x="337" d="M384 601l-18 -128q-1 -7 -1.5 -21.5t-0.5 -21.5h-61q2 28 4 45h-2q-32 -51 -107 -51q-48 0 -74 22q-20 19 -20 50q0 8 1 16q5 33 25.5 54t54.5 29t58 10t59 2h23l2 14q3 16 -14.5 30.5t-51.5 14.5q-28 0 -54.5 -9.5t-39.5 -21.5l-25 42q52 43 126 43q70 0 98 -30 q20 -22 20 -61q0 -13 -2 -28zM319 559h-48q-56 0 -78 -15t-22 -35q0 -13 13 -21q14 -10 39 -10q38 0 64 20t29 44z" />
<glyph unicode="&#xab;" horiz-adv-x="500" d="M315 418l-142 -178l92 -178l-60 -36l-113 214l173 214zM501 418l-142 -178l92 -178l-60 -36l-113 214l173 214z" />
<glyph unicode="&#xac;" horiz-adv-x="666" d="M121 348l9 66h522l-39 -278h-66l30 212h-456z" />
<glyph unicode="&#xad;" horiz-adv-x="333" d="M73 204l10 72h245l-10 -72h-245z" />
<glyph unicode="&#xae;" horiz-adv-x="800" d="M277 137l61 435h164q77 0 110 -31q27 -24 27 -68q0 -12 -2 -25q-15 -107 -132 -119l98 -192h-71l-91 187h-71l-27 -187h-66zM397 518l-20 -140h68q37 0 58.5 3t42.5 20t25 50q1 6 1 12q0 20 -10 32q-14 16 -32.5 19.5t-45.5 3.5h-87zM78 354q15 104 77.5 189.5t154.5 134 t192 48.5q153 0 248 -108q76 -87 76 -206q0 -28 -4 -58q-22 -157 -147 -264.5t-278 -107.5q-154 0 -247 108q-76 87 -76 206q0 28 4 58zM144 354q-4 -27 -4 -53q0 -100 60 -173q76 -92 205 -92q128 0 230 91.5t121 226.5q4 27 4 52q0 100 -62 174q-76 92 -204 92 q-129 0 -230 -91.5t-120 -226.5z" />
<glyph unicode="&#xaf;" horiz-adv-x="240" d="M351 660l-9 -60h-276l9 60h276z" />
<glyph unicode="&#xb0;" horiz-adv-x="400" d="M138 577q8 60 55.5 101.5t107.5 41.5t95 -42q29 -33 29 -80q0 -10 -1 -21q-8 -60 -55.5 -101.5t-107.5 -41.5t-95 42q-29 33 -29 80q0 10 1 21zM192 577q-1 -6 -1 -12q0 -26 18 -49q22 -28 60 -28t67 28t34 61q1 6 1 12q0 26 -17 49q-22 28 -60 28t-67.5 -28t-34.5 -61z " />
<glyph unicode="&#xb1;" horiz-adv-x="666" d="M118 330l10 66h228l23 168h66l-23 -168h228l-10 -66h-228l-23 -168h-66l23 168h-228zM78 42l9 66h522l-9 -66h-522z" />
<glyph unicode="&#xb2;" horiz-adv-x="361" d="M73 289l8 58l189 151q36 29 52.5 48.5t20.5 48.5q1 6 1 11q0 25 -15 40q-18 20 -48 20q-32 0 -57.5 -18t-35.5 -49l-62 5q17 58 59.5 87t100.5 29q61 0 96 -32q29 -26 29 -70q0 -11 -2 -23q-5 -32 -23 -60.5t-36 -44t-51 -41.5l-135 -104v-2h213l-7 -54h-297z" />
<glyph unicode="&#xb3;" horiz-adv-x="361" d="M208 484l8 54h17q92 0 101 69q1 6 1 11q0 22 -14 34q-17 14 -49 14q-61 0 -87 -42l-52 25q45 71 146 71q58 0 93 -30q30 -24 30 -64q0 -8 -1 -17q-5 -33 -31 -60t-62 -37v-2q42 -6 63 -36q17 -23 17 -55q0 -7 -1 -15q-8 -57 -56 -89t-113 -32q-118 0 -134 92l57 23 q5 -24 26 -42.5t58 -18.5q36 0 64 18.5t32 51.5q1 7 1 14q0 32 -24 46q-29 17 -74 17h-16z" />
<glyph unicode="&#xb4;" horiz-adv-x="240" d="M130 564l125 144h110l-164 -144h-71z" />
<glyph unicode="&#xb5;" d="M548 468l-50 -357q-3 -24 -6.5 -61.5t-5.5 -49.5h-74q2 13 4.5 38.5t4.5 38.5h-2q-23 -37 -68.5 -63t-100.5 -26q-57 0 -96 25l-34 -241h-78l98 696h78l-40 -281q-2 -16 -2 -30q0 -39 16 -63q22 -34 75 -34q73 0 116 48t55 132l32 228h78z" />
<glyph unicode="&#xb6;" horiz-adv-x="600" d="M274 -126l62 442q-91 0 -142 54q-42 44 -42 105q0 13 2 27q13 97 82 151.5t175 54.5h243l-118 -834h-72l108 768h-118l-108 -768h-72z" />
<glyph unicode="&#xb7;" horiz-adv-x="278" d="M191 369q25 0 40 -17q12 -14 12 -33q0 -5 -1 -10q-3 -24 -23.5 -42t-44.5 -18t-40 18q-12 15 -12 34v8q4 25 24 42.5t45 17.5z" />
<glyph unicode="&#xb8;" horiz-adv-x="240" d="M158 0l-54 -64l36 4q30 0 52 -18q19 -15 19 -39q0 -6 -1 -12q-6 -44 -44 -66t-85 -22q-55 0 -97 21l23 37q32 -16 69 -16q24 0 44 9.5t23 31.5q1 3 1 6q0 15 -12 22q-15 10 -35 10q-15 0 -41 -8l-17 19l74 85h45z" />
<glyph unicode="&#xb9;" horiz-adv-x="361" d="M214 289l49 352h-2l-90 -66l-27 46l137 93h58l-59 -425h-66z" />
<glyph unicode="&#xba;" horiz-adv-x="386" d="M111 573q9 65 60.5 106t122.5 41t112 -41q33 -34 33 -83q0 -11 -2 -23q-10 -67 -61.5 -108t-122.5 -41t-111 41q-33 33 -33 82q0 13 2 26zM177 573q-1 -7 -1 -14q0 -30 18 -53q23 -28 66 -28t74.5 28.5t36.5 66.5q1 7 1 13q0 29 -19 52q-23 28 -66 28t-74 -28t-36 -65z " />
<glyph unicode="&#xbb;" horiz-adv-x="500" d="M67 62l142 178l-92 178l60 36l113 -214l-173 -214zM253 62l142 178l-92 178l60 36l113 -214l-173 -214z" />
<glyph unicode="&#xbc;" horiz-adv-x="834" d="M799 425l-40 -281h56l-7 -54h-56l-13 -90h-66l13 90h-195l9 63l221 272h78zM149 0l548 740l51 -32l-548 -740zM693 144l29 203h-2l-162 -203h135zM196 289l49 353h-2l-90 -67l-27 46l137 93h58l-59 -425h-66z" />
<glyph unicode="&#xbd;" horiz-adv-x="834" d="M132 0l548 740l51 -32l-548 -740zM190 289l49 353h-2l-90 -67l-27 46l137 93h58l-59 -425h-66zM504 0l8 58l189 151q36 29 52.5 48.5t20.5 48.5q1 6 1 11q0 25 -15 41q-18 19 -48 19q-32 0 -57 -18t-35 -49l-63 5q17 58 60 87t101 29q61 0 96 -32q28 -25 28 -69 q0 -12 -2 -24q-5 -32 -23 -60.5t-36 -44t-51 -41.5l-134 -104v-2h213l-8 -54h-297z" />
<glyph unicode="&#xbe;" horiz-adv-x="834" d="M813 425l-40 -281h56l-7 -54h-56l-13 -90h-66l13 90h-195l9 63l221 272h78zM188 0l548 740l51 -32l-548 -740zM707 144l29 203h-2l-161 -201l-1 -2h135zM203 484l8 54h16q93 0 102 69q1 6 1 11q0 22 -14 34q-17 14 -49 14q-61 0 -87 -42l-52 25q45 71 146 71q58 0 94 -30 q29 -24 29 -64q0 -8 -1 -17q-5 -33 -31 -60t-62 -37v-2q42 -6 63 -36q17 -23 17 -55q0 -7 -1 -15q-8 -57 -56 -89t-113 -32q-117 0 -135 92l58 23q5 -24 26 -42.5t58 -18.5q36 0 64 18.5t32 51.5q1 7 1 14q0 32 -24 46q-29 17 -74 17h-16z" />
<glyph unicode="&#xbf;" horiz-adv-x="482" d="M357 -59l88 -10q-24 -80 -89 -125.5t-148 -45.5q-85 0 -134 47q-38 38 -38 99q0 15 2 32q5 31 16.5 57.5t35.5 52.5t39 40t50 43q36 30 47 49t17 62l6 46h84l-8 -63q-8 -52 -23.5 -74.5t-65.5 -66.5q-4 -3 -20 -17t-21 -19l-17 -18q-13 -12 -18.5 -20t-13 -20t-11.5 -24 t-6 -25q-2 -11 -2 -21q0 -35 19 -58q24 -30 73 -30q50 0 87 30t51 79zM303 372q-25 0 -40 18q-12 13 -12 32q0 5 1 10q3 24 23.5 42t44.5 18t40 -18q12 -15 12 -34v-8q-4 -25 -24 -42.5t-45 -17.5z" />
<glyph unicode="&#xc0;" horiz-adv-x="704" d="M6 0l412 708h79l201 -708h-98l-48 174h-354l-97 -174h-95zM531 252l-91 348h-2l-196 -348h289zM444 902l84 -144h-71l-123 144h110z" />
<glyph unicode="&#xc1;" horiz-adv-x="704" d="M6 0l412 708h79l201 -708h-98l-48 174h-354l-97 -174h-95zM531 252l-91 348h-2l-196 -348h289zM390 758l124 144h110l-163 -144h-71z" />
<glyph unicode="&#xc2;" horiz-adv-x="704" d="M6 0l412 708h79l201 -708h-98l-48 174h-354l-97 -174h-95zM531 252l-91 348h-2l-196 -348h289zM302 758l131 144h91l92 -144h-81l-65 102l-92 -102h-76z" />
<glyph unicode="&#xc3;" horiz-adv-x="704" d="M6 0l412 708h79l201 -708h-98l-48 174h-354l-97 -174h-95zM531 252l-91 348h-2l-196 -348h289zM341 770h-48q13 43 43.5 73.5t71.5 30.5q27 0 81 -23q38 -17 51 -17q36 0 54 44h48q-31 -104 -107 -104q-30 0 -78 21q-45 19 -64 19q-34 0 -52 -44z" />
<glyph unicode="&#xc4;" horiz-adv-x="704" d="M6 0l412 708h79l201 -708h-98l-48 174h-354l-97 -174h-95zM531 252l-91 348h-2l-196 -348h289zM376 878q22 0 36 -16q12 -13 12 -30q0 -4 -1 -8q-3 -22 -21 -38t-41 -16q-22 0 -35 16q-12 12 -12 30q0 4 1 8q3 22 21 38t40 16zM574 878q22 0 36 -16q12 -13 12 -30 q0 -4 -1 -8q-3 -22 -21 -38t-41 -16q-22 0 -35 16q-12 12 -12 30q0 4 1 8q3 22 21 38t40 16z" />
<glyph unicode="&#xc5;" horiz-adv-x="704" d="M6 0l412 708h79l201 -708h-98l-48 174h-354l-97 -174h-95zM531 252l-91 348h-2l-196 -348h289zM370 829q5 40 37.5 69.5t74.5 29.5q43 0 67 -29q20 -24 20 -56q0 -7 -1 -14q-6 -41 -38.5 -70t-74.5 -29t-67 29q-19 23 -19 54q0 8 1 16zM412 829q-1 -5 -1 -10 q0 -17 12 -31q15 -16 38 -16q22 0 41.5 16.5t23.5 40.5v8q0 19 -12 33q-15 16 -37 16t-42 -17t-23 -40z" />
<glyph unicode="&#xc6;" horiz-adv-x="944" d="M-10 0l560 708h435l-11 -78h-294l-32 -222h276l-11 -78h-276l-35 -252h306l-11 -78h-390l27 192h-293l-150 -192h-101zM545 270l51 360h-12l-282 -360h243z" />
<glyph unicode="&#xc7;" horiz-adv-x="704" d="M743 615l-80 -53q-25 42 -69 64t-96 22q-116 0 -205 -87.5t-106 -206.5q-4 -26 -4 -51q0 -92 51 -159q63 -84 181 -84q128 0 219 99l56 -53q-109 -124 -286 -124l-38 -46l36 4q30 0 52 -18q19 -15 19 -39q0 -6 -1 -12q-6 -44 -44 -66t-85 -22q-55 0 -97 21l23 37 q32 -16 69 -16q24 0 44 9.5t23 31.5q1 3 1 6q0 15 -12 22q-15 10 -35 10q-15 0 -41 -8l-17 19l61 70q-135 14 -210 117q-60 81 -60 189q0 31 5 63q22 158 139 265t273 107q164 0 234 -111z" />
<glyph unicode="&#xc8;" horiz-adv-x="593" d="M88 0l100 708h445l-11 -78h-361l-32 -222h337l-11 -78h-337l-35 -252h379l-11 -78h-463zM389 902l84 -144h-71l-123 144h110z" />
<glyph unicode="&#xc9;" horiz-adv-x="593" d="M88 0l100 708h445l-11 -78h-361l-32 -222h337l-11 -78h-337l-35 -252h379l-11 -78h-463zM335 758l124 144h110l-163 -144h-71z" />
<glyph unicode="&#xca;" horiz-adv-x="593" d="M88 0l100 708h445l-11 -78h-361l-32 -222h337l-11 -78h-337l-35 -252h379l-11 -78h-463zM247 758l131 144h91l92 -144h-81l-65 102l-92 -102h-76z" />
<glyph unicode="&#xcb;" horiz-adv-x="593" d="M88 0l100 708h445l-11 -78h-361l-32 -222h337l-11 -78h-337l-35 -252h379l-11 -78h-463zM321 878q22 0 36 -16q12 -13 12 -30q0 -4 -1 -8q-3 -22 -21 -38t-41 -16q-22 0 -36 16q-11 12 -11 30q0 4 1 8q3 22 21 38t40 16zM519 878q22 0 36 -16q12 -13 12 -30q0 -4 -1 -8 q-3 -22 -21 -38t-41 -16q-22 0 -36 16q-11 12 -11 30q0 4 1 8q3 22 21 38t40 16z" />
<glyph unicode="&#xcc;" horiz-adv-x="260" d="M88 0l100 708h84l-100 -708h-84zM222 902l84 -144h-71l-123 144h110z" />
<glyph unicode="&#xcd;" horiz-adv-x="260" d="M88 0l100 708h84l-100 -708h-84zM168 758l124 144h110l-163 -144h-71z" />
<glyph unicode="&#xce;" horiz-adv-x="260" d="M88 0l100 708h84l-100 -708h-84zM80 758l131 144h91l92 -144h-81l-65 102l-92 -102h-76z" />
<glyph unicode="&#xcf;" horiz-adv-x="260" d="M88 0l100 708h84l-100 -708h-84zM154 878q22 0 36 -16q12 -13 12 -30q0 -4 -1 -8q-3 -22 -21 -38t-41 -16q-22 0 -35 16q-12 12 -12 30q0 4 1 8q3 22 21 38t40 16zM352 878q22 0 36 -16q12 -13 12 -30q0 -4 -1 -8q-3 -22 -21 -38t-41 -16q-22 0 -35 16q-12 12 -12 30 q0 4 1 8q3 22 21 38t40 16z" />
<glyph unicode="&#xd0;" horiz-adv-x="741" d="M132 402l43 306h272q56 0 110.5 -19.5t103 -59t72.5 -111.5q16 -46 16 -101q0 -30 -5 -63q-11 -75 -42.5 -136.5t-73 -101t-92.5 -66.5t-98 -38.5t-91 -11.5h-272l47 336h-72l10 66h72zM248 630l-32 -228h252l-10 -66h-252l-36 -258h160q129 0 216.5 68.5t107.5 207.5 q4 30 4 57q0 97 -53 151q-68 68 -197 68h-160z" />
<glyph unicode="&#xd1;" horiz-adv-x="778" d="M88 0l100 708h106l327 -588h2l83 588h84l-100 -708h-106l-327 588h-2l-83 -588h-84zM378 770h-48q13 43 43.5 73.5t71.5 30.5q27 0 81 -23q38 -17 51 -17q36 0 54 44h48q-31 -104 -107 -104q-30 0 -78 21q-45 19 -64 19q-34 0 -52 -44z" />
<glyph unicode="&#xd2;" horiz-adv-x="834" d="M414 -18q-161 0 -250 106q-72 83 -72 202q0 31 5 64q23 161 142 266.5t280 105.5t251 -106q72 -84 72 -203q0 -30 -5 -63q-23 -161 -142.5 -266.5t-280.5 -105.5zM425 60q123 0 213.5 85t108.5 209q4 26 4 51q0 91 -53 158q-67 85 -190 85t-213 -85t-108 -209 q-4 -26 -4 -51q0 -91 53 -158q66 -85 189 -85zM509 902l84 -144h-71l-123 144h110z" />
<glyph unicode="&#xd3;" horiz-adv-x="834" d="M414 -18q-161 0 -250 106q-72 83 -72 202q0 31 5 64q23 161 142 266.5t280 105.5t251 -106q72 -84 72 -203q0 -30 -5 -63q-23 -161 -142.5 -266.5t-280.5 -105.5zM425 60q123 0 213.5 85t108.5 209q4 26 4 51q0 91 -53 158q-67 85 -190 85t-213 -85t-108 -209 q-4 -26 -4 -51q0 -91 53 -158q66 -85 189 -85zM455 758l124 144h110l-163 -144h-71z" />
<glyph unicode="&#xd4;" horiz-adv-x="834" d="M414 -18q-161 0 -250 106q-72 83 -72 202q0 31 5 64q23 161 142 266.5t280 105.5t251 -106q72 -84 72 -203q0 -30 -5 -63q-23 -161 -142.5 -266.5t-280.5 -105.5zM425 60q123 0 213.5 85t108.5 209q4 26 4 51q0 91 -53 158q-67 85 -190 85t-213 -85t-108 -209 q-4 -26 -4 -51q0 -91 53 -158q66 -85 189 -85zM367 758l131 144h91l92 -144h-81l-65 102l-92 -102h-76z" />
<glyph unicode="&#xd5;" horiz-adv-x="834" d="M414 -18q-161 0 -250 106q-72 83 -72 202q0 31 5 64q23 161 142 266.5t280 105.5t251 -106q72 -84 72 -203q0 -30 -5 -63q-23 -161 -142.5 -266.5t-280.5 -105.5zM425 60q123 0 213.5 85t108.5 209q4 26 4 51q0 91 -53 158q-67 85 -190 85t-213 -85t-108 -209 q-4 -26 -4 -51q0 -91 53 -158q66 -85 189 -85zM406 770h-48q13 43 43.5 73.5t71.5 30.5q27 0 81 -23q38 -17 51 -17q36 0 54 44h48q-31 -104 -107 -104q-30 0 -78 21q-45 19 -64 19q-34 0 -52 -44z" />
<glyph unicode="&#xd6;" horiz-adv-x="834" d="M414 -18q-161 0 -250 106q-72 83 -72 202q0 31 5 64q23 161 142 266.5t280 105.5t251 -106q72 -84 72 -203q0 -30 -5 -63q-23 -161 -142.5 -266.5t-280.5 -105.5zM425 60q123 0 213.5 85t108.5 209q4 26 4 51q0 91 -53 158q-67 85 -190 85t-213 -85t-108 -209 q-4 -26 -4 -51q0 -91 53 -158q66 -85 189 -85zM441 878q22 0 36 -16q12 -13 12 -30q0 -4 -1 -8q-3 -22 -21 -38t-41 -16q-22 0 -36 16q-11 12 -11 30q0 4 1 8q3 22 21 38t40 16zM639 878q22 0 36 -16q12 -13 12 -30q0 -4 -1 -8q-3 -22 -21 -38t-41 -16q-22 0 -36 16 q-11 12 -11 30q0 4 1 8q3 22 21 38t40 16z" />
<glyph unicode="&#xd7;" horiz-adv-x="666" d="M217 544l165 -193l220 193l42 -47l-221 -194l167 -192l-55 -49l-166 194l-220 -194l-42 47l221 194l-166 192z" />
<glyph unicode="&#xd8;" horiz-adv-x="834" d="M707 550l-451 -426q66 -64 169 -64q123 0 213.5 85t108.5 209q3 25 3 48q0 85 -43 148zM223 164l450 425q-65 59 -165 59q-123 0 -213 -85t-108 -209q-4 -27 -4 -52q0 -77 40 -138zM62 11l93 88q-62 81 -62 193q0 30 4 62q23 161 142 266.5t280 105.5q131 0 219 -75 l92 87l36 -38l-91 -86q66 -83 66 -199q0 -29 -4 -61q-23 -161 -142.5 -266.5t-280.5 -105.5q-137 0 -224 79l-94 -88z" />
<glyph unicode="&#xd9;" horiz-adv-x="704" d="M719 708l-62 -438q-18 -127 -94.5 -207.5t-213.5 -80.5q-71 0 -121 23.5t-73.5 63t-32.5 91.5q-5 24 -5 49q0 30 6 61l62 438h84l-60 -426q-5 -26 -5 -52q0 -16 2 -31q5 -40 19.5 -71t49 -49.5t85.5 -18.5q98 0 149.5 62.5t65.5 159.5l60 426h84zM444 902l84 -144h-71 l-123 144h110z" />
<glyph unicode="&#xda;" horiz-adv-x="704" d="M719 708l-62 -438q-18 -127 -94.5 -207.5t-213.5 -80.5q-71 0 -121 23.5t-73.5 63t-32.5 91.5q-5 24 -5 49q0 30 6 61l62 438h84l-60 -426q-5 -26 -5 -52q0 -16 2 -31q5 -40 19.5 -71t49 -49.5t85.5 -18.5q98 0 149.5 62.5t65.5 159.5l60 426h84zM390 758l124 144h110 l-163 -144h-71z" />
<glyph unicode="&#xdb;" horiz-adv-x="704" d="M719 708l-62 -438q-18 -127 -94.5 -207.5t-213.5 -80.5q-71 0 -121 23.5t-73.5 63t-32.5 91.5q-5 24 -5 49q0 30 6 61l62 438h84l-60 -426q-5 -26 -5 -52q0 -16 2 -31q5 -40 19.5 -71t49 -49.5t85.5 -18.5q98 0 149.5 62.5t65.5 159.5l60 426h84zM302 758l131 144h91 l92 -144h-81l-65 102l-92 -102h-76z" />
<glyph unicode="&#xdc;" horiz-adv-x="704" d="M719 708l-62 -438q-18 -127 -94.5 -207.5t-213.5 -80.5q-71 0 -121 23.5t-73.5 63t-32.5 91.5q-5 24 -5 49q0 30 6 61l62 438h84l-60 -426q-5 -26 -5 -52q0 -16 2 -31q5 -40 19.5 -71t49 -49.5t85.5 -18.5q98 0 149.5 62.5t65.5 159.5l60 426h84zM376 878q22 0 36 -16 q12 -13 12 -30q0 -4 -1 -8q-3 -22 -21 -38t-41 -16q-22 0 -35 16q-12 12 -12 30q0 4 1 8q3 22 21 38t40 16zM574 878q22 0 36 -16q12 -13 12 -30q0 -4 -1 -8q-3 -22 -21 -38t-41 -16q-22 0 -35 16q-12 12 -12 30q0 4 1 8q3 22 21 38t40 16z" />
<glyph unicode="&#xdd;" horiz-adv-x="594" d="M255 0l43 305l-207 403h107l154 -320l250 320h101l-321 -403l-43 -305h-84zM335 758l124 144h110l-163 -144h-71z" />
<glyph unicode="&#xde;" horiz-adv-x="593" d="M88 0l100 708h84l-18 -125h126q109 0 172 -45q52 -38 52 -113q0 -17 -3 -36q-8 -55 -35 -95.5t-66 -61t-78.5 -30t-80.5 -9.5h-142l-27 -193h-84zM243 505l-33 -234h142q65 0 107.5 29.5t51.5 87.5q2 11 2 21q0 42 -29 66q-34 30 -99 30h-142z" />
<glyph unicode="&#xdf;" horiz-adv-x="593" d="M74 0l76 540q14 100 77 164t174 64q85 0 134 -48q39 -38 39 -99q0 -15 -2 -31q-8 -57 -42.5 -98t-89.5 -60l-1 -2q79 -8 116 -68q28 -45 28 -104q0 -19 -3 -40q-15 -104 -91.5 -167t-180.5 -63q-36 0 -60 9l10 71q21 -8 50 -8q75 0 126.5 45.5t62.5 119.5q2 16 2 31 q0 57 -33 94q-43 45 -122 45h-23l9 66h22q55 0 94 32.5t47 87.5q1 10 1 19q0 40 -24 65q-30 31 -83 31q-137 0 -160 -163l-75 -533h-78z" />
<glyph unicode="&#xe0;" horiz-adv-x="519" d="M167 357l-42 51q81 72 196 72q102 0 143 -49q30 -36 30 -101q0 -22 -4 -48l-29 -201q-4 -40 -4 -70v-11h-75v11q0 22 5 59h-2q-65 -82 -166 -82q-75 0 -119 36q-37 31 -37 81q0 11 2 22q5 37 22.5 65.5t45 46t56 28.5t66.5 16t65.5 6.5t62.5 1.5h30l2 14q1 10 1 20 q0 35 -21 57q-27 26 -82 26q-83 0 -146 -51zM404 225h-78q-163 0 -176 -90q-1 -8 -1 -15q0 -31 21 -46q25 -20 72 -20q65 0 106 40.5t51 100.5zM327 724l84 -144h-71l-123 144h110z" />
<glyph unicode="&#xe1;" horiz-adv-x="519" d="M167 357l-42 51q81 72 196 72q102 0 143 -49q30 -36 30 -101q0 -22 -4 -48l-29 -201q-4 -40 -4 -70v-11h-75v11q0 22 5 59h-2q-65 -82 -166 -82q-75 0 -119 36q-37 31 -37 81q0 11 2 22q5 37 22.5 65.5t45 46t56 28.5t66.5 16t65.5 6.5t62.5 1.5h30l2 14q1 10 1 20 q0 35 -21 57q-27 26 -82 26q-83 0 -146 -51zM404 225h-78q-163 0 -176 -90q-1 -8 -1 -15q0 -31 21 -46q25 -20 72 -20q65 0 106 40.5t51 100.5zM273 580l124 144h110l-163 -144h-71z" />
<glyph unicode="&#xe2;" horiz-adv-x="519" d="M167 357l-42 51q81 72 196 72q102 0 143 -49q30 -36 30 -101q0 -22 -4 -48l-29 -201q-4 -40 -4 -70v-11h-75v11q0 22 5 59h-2q-65 -82 -166 -82q-75 0 -119 36q-37 31 -37 81q0 11 2 22q5 37 22.5 65.5t45 46t56 28.5t66.5 16t65.5 6.5t62.5 1.5h30l2 14q1 10 1 20 q0 35 -21 57q-27 26 -82 26q-83 0 -146 -51zM404 225h-78q-163 0 -176 -90q-1 -8 -1 -15q0 -31 21 -46q25 -20 72 -20q65 0 106 40.5t51 100.5zM185 580l131 144h91l92 -144h-81l-65 102l-92 -102h-76z" />
<glyph unicode="&#xe3;" horiz-adv-x="519" d="M167 357l-42 51q81 72 196 72q102 0 143 -49q30 -36 30 -101q0 -22 -4 -48l-29 -201q-4 -40 -4 -70v-11h-75v11q0 22 5 59h-2q-65 -82 -166 -82q-75 0 -119 36q-37 31 -37 81q0 11 2 22q5 37 22.5 65.5t45 46t56 28.5t66.5 16t65.5 6.5t62.5 1.5h30l2 14q1 10 1 20 q0 35 -21 57q-27 26 -82 26q-83 0 -146 -51zM404 225h-78q-163 0 -176 -90q-1 -8 -1 -15q0 -31 21 -46q25 -20 72 -20q65 0 106 40.5t51 100.5zM224 592h-48q13 43 43.5 73.5t71.5 30.5q27 0 81 -23q38 -17 51 -17q36 0 54 44h48q-31 -104 -107 -104q-30 0 -78 21 q-45 19 -64 19q-34 0 -52 -44z" />
<glyph unicode="&#xe4;" horiz-adv-x="519" d="M167 357l-42 51q81 72 196 72q102 0 143 -49q30 -36 30 -101q0 -22 -4 -48l-29 -201q-4 -40 -4 -70v-11h-75v11q0 22 5 59h-2q-65 -82 -166 -82q-75 0 -119 36q-37 31 -37 81q0 11 2 22q5 37 22.5 65.5t45 46t56 28.5t66.5 16t65.5 6.5t62.5 1.5h30l2 14q1 10 1 20 q0 35 -21 57q-27 26 -82 26q-83 0 -146 -51zM404 225h-78q-163 0 -176 -90q-1 -8 -1 -15q0 -31 21 -46q25 -20 72 -20q65 0 106 40.5t51 100.5zM259 700q22 0 36 -16q12 -13 12 -30q0 -4 -1 -8q-3 -22 -21 -38t-41 -16q-22 0 -36 16q-11 12 -11 30q0 4 1 8q3 22 21 38t40 16 zM457 700q22 0 36 -16q12 -13 12 -30q0 -4 -1 -8q-3 -22 -21 -38t-41 -16q-22 0 -36 16q-11 12 -11 30q0 4 1 8q3 22 21 38t40 16z" />
<glyph unicode="&#xe5;" horiz-adv-x="519" d="M167 357l-42 51q81 72 196 72q102 0 143 -49q30 -36 30 -101q0 -22 -4 -48l-29 -201q-4 -40 -4 -70v-11h-75v11q0 22 5 59h-2q-65 -82 -166 -82q-75 0 -119 36q-37 31 -37 81q0 11 2 22q5 37 22.5 65.5t45 46t56 28.5t66.5 16t65.5 6.5t62.5 1.5h30l2 14q1 10 1 20 q0 35 -21 57q-27 26 -82 26q-83 0 -146 -51zM404 225h-78q-163 0 -176 -90q-1 -8 -1 -15q0 -31 21 -46q25 -20 72 -20q65 0 106 40.5t51 100.5zM254 661q5 40 38 69.5t75 29.5q43 0 67 -29q19 -24 19 -56q0 -7 -1 -14q-6 -41 -38.5 -70t-74.5 -29t-67 29q-19 23 -19 54 q0 8 1 16zM296 661q-1 -5 -1 -10q0 -17 12 -31q15 -16 38 -16q22 0 41.5 16.5t23.5 40.5v8q0 19 -12 33q-15 16 -37 16t-42 -17t-23 -40z" />
<glyph unicode="&#xe6;" horiz-adv-x="852" d="M752 131l53 -46q-89 -97 -222 -97q-63 0 -105.5 30t-57.5 71q-66 -101 -202 -101q-69 0 -116 36q-39 29 -39 82q0 11 2 23q21 147 255 147h96l1 12q2 13 2 24q0 37 -19 62q-26 34 -83 34q-75 0 -143 -46l-43 52q85 66 196 66q116 0 151 -79q86 79 177 79q101 0 153 -65 q39 -50 39 -128q0 -25 -4 -52l-3 -25h-361q-2 -12 -2 -24q0 -47 26 -82q32 -44 90 -44q94 0 159 71zM407 210h-117q-52 0 -93.5 -18t-46.5 -60q-1 -6 -1 -12q0 -28 25 -42q29 -18 74 -18q61 0 104.5 38t52.5 99zM488 276h277q1 9 1 18q0 48 -28 78q-32 36 -96 36 q-56 0 -100.5 -40.5t-53.5 -91.5z" />
<glyph unicode="&#xe7;" horiz-adv-x="482" d="M526 406l-70 -55q-38 57 -110 57q-76 0 -124 -49t-58 -125q-3 -17 -3 -32q0 -53 29 -92q37 -50 107 -50q77 0 128 58l50 -55q-71 -70 -169 -73l-46 -54l36 4q30 0 52 -18q19 -15 19 -39q0 -6 -1 -12q-6 -44 -44 -66t-85 -22q-55 0 -97 21l23 37q32 -16 69 -16 q24 0 44 9.5t23 31.5q1 3 1 6q0 15 -12 22q-15 10 -35 10q-15 0 -41 -8l-17 19l66 76q-96 7 -145 74q-39 52 -39 126q0 21 3 43q15 107 92 176.5t184 69.5q112 0 170 -74z" />
<glyph unicode="&#xe8;" d="M451 131l53 -46q-89 -97 -222 -97q-107 0 -162 70q-43 56 -43 133q0 20 3 43q15 108 92.5 177t181.5 69q101 0 152 -65q40 -50 40 -128q0 -25 -4 -52l-3 -25h-378q-1 -7 -1 -15q0 -52 33 -91q37 -44 99 -44q94 0 159 71zM170 276h294q1 9 1 18q0 48 -27 78q-33 36 -97 36 t-109.5 -36t-61.5 -96zM345 724l84 -144h-71l-123 144h110z" />
<glyph unicode="&#xe9;" d="M451 131l53 -46q-89 -97 -222 -97q-107 0 -162 70q-43 56 -43 133q0 20 3 43q15 108 92.5 177t181.5 69q101 0 152 -65q40 -50 40 -128q0 -25 -4 -52l-3 -25h-378q-1 -7 -1 -15q0 -52 33 -91q37 -44 99 -44q94 0 159 71zM170 276h294q1 9 1 18q0 48 -27 78q-33 36 -97 36 t-109.5 -36t-61.5 -96zM291 580l124 144h110l-163 -144h-71z" />
<glyph unicode="&#xea;" d="M451 131l53 -46q-89 -97 -222 -97q-107 0 -162 70q-43 56 -43 133q0 20 3 43q15 108 92.5 177t181.5 69q101 0 152 -65q40 -50 40 -128q0 -25 -4 -52l-3 -25h-378q-1 -7 -1 -15q0 -52 33 -91q37 -44 99 -44q94 0 159 71zM170 276h294q1 9 1 18q0 48 -27 78q-33 36 -97 36 t-109.5 -36t-61.5 -96zM203 580l131 144h91l92 -144h-81l-65 102l-92 -102h-76z" />
<glyph unicode="&#xeb;" d="M451 131l53 -46q-89 -97 -222 -97q-107 0 -162 70q-43 56 -43 133q0 20 3 43q15 108 92.5 177t181.5 69q101 0 152 -65q40 -50 40 -128q0 -25 -4 -52l-3 -25h-378q-1 -7 -1 -15q0 -52 33 -91q37 -44 99 -44q94 0 159 71zM170 276h294q1 9 1 18q0 48 -27 78q-33 36 -97 36 t-109.5 -36t-61.5 -96zM277 700q22 0 36 -16q12 -13 12 -30q0 -4 -1 -8q-3 -22 -21 -38t-41 -16q-22 0 -36 16q-11 12 -11 30q0 4 1 8q3 22 21 38t40 16zM475 700q22 0 36 -16q12 -13 12 -30q0 -4 -1 -8q-3 -22 -21 -38t-41 -16q-22 0 -36 16q-11 12 -11 30q0 4 1 8 q3 22 21 38t40 16z" />
<glyph unicode="&#xec;" horiz-adv-x="240" d="M81 0l66 468h78l-66 -468h-78zM187 724l84 -144h-71l-123 144h110z" />
<glyph unicode="&#xed;" horiz-adv-x="240" d="M81 0l66 468h78l-66 -468h-78zM133 580l124 144h110l-163 -144h-71z" />
<glyph unicode="&#xee;" horiz-adv-x="240" d="M81 0l66 468h78l-66 -468h-78zM45 580l131 144h91l92 -144h-81l-65 102l-92 -102h-76z" />
<glyph unicode="&#xef;" horiz-adv-x="240" d="M81 0l66 468h78l-66 -468h-78zM119 700q22 0 36 -16q12 -13 12 -30q0 -4 -1 -8q-3 -22 -21 -38t-41 -16q-22 0 -36 16q-11 12 -11 30q0 4 1 8q3 22 21 38t40 16zM317 700q22 0 36 -16q12 -13 12 -30q0 -4 -1 -8q-3 -22 -21 -38t-41 -16q-22 0 -36 16q-11 12 -11 30 q0 4 1 8q3 22 21 38t40 16z" />
<glyph unicode="&#xf0;" horiz-adv-x="594" d="M214 610l113 53q-32 36 -77 76l74 40q50 -46 80 -80l115 54l40 -39l-119 -56q82 -89 122 -180q27 -64 27 -143q0 -34 -5 -70q-18 -126 -92.5 -201.5t-196.5 -75.5q-109 0 -170 68q-48 55 -48 134q0 21 3 44q15 109 95 177.5t189 68.5q81 0 124 -49l1 2q-32 81 -124 190 l-115 -54zM164 234q-2 -16 -2 -32q0 -54 30 -92q39 -50 113 -50t127 49.5t64 124.5q2 16 2 32q0 54 -30 92q-39 50 -114 50q-74 0 -126.5 -49.5t-63.5 -124.5z" />
<glyph unicode="&#xf1;" d="M74 0l50 357q3 21 6 58t6 53h74q-2 -13 -4.5 -38.5t-4.5 -38.5h2q22 37 67.5 63t100.5 26q89 0 127 -52q28 -39 28 -98q0 -20 -3 -41l-41 -289h-78l39 281q2 16 2 30q0 39 -16 63q-22 34 -75 34q-73 0 -115.5 -48t-54.5 -132l-32 -228h-78zM242 592h-48q13 43 43.5 73.5 t71.5 30.5q27 0 81 -23q38 -17 51 -17q36 0 54 44h48q-31 -104 -107 -104q-30 0 -78 21q-45 19 -64 19q-34 0 -52 -44z" />
<glyph unicode="&#xf2;" horiz-adv-x="594" d="M80 234q15 109 95 177.5t189 68.5t170 -68q49 -55 49 -137q0 -19 -3 -41q-16 -109 -96 -177.5t-189 -68.5t-170 68q-48 55 -48 134q0 21 3 44zM164 234q-2 -16 -2 -32q0 -54 30 -92q39 -50 113 -50t127 49.5t64 124.5q2 16 2 32q0 54 -30 92q-39 50 -114 50 q-74 0 -126.5 -49.5t-63.5 -124.5zM364 724l84 -144h-71l-123 144h110z" />
<glyph unicode="&#xf3;" horiz-adv-x="594" d="M80 234q15 109 95 177.5t189 68.5t170 -68q49 -55 49 -137q0 -19 -3 -41q-16 -109 -96 -177.5t-189 -68.5t-170 68q-48 55 -48 134q0 21 3 44zM164 234q-2 -16 -2 -32q0 -54 30 -92q39 -50 113 -50t127 49.5t64 124.5q2 16 2 32q0 54 -30 92q-39 50 -114 50 q-74 0 -126.5 -49.5t-63.5 -124.5zM310 580l124 144h110l-163 -144h-71z" />
<glyph unicode="&#xf4;" horiz-adv-x="594" d="M80 234q15 109 95 177.5t189 68.5t170 -68q49 -55 49 -137q0 -19 -3 -41q-16 -109 -96 -177.5t-189 -68.5t-170 68q-48 55 -48 134q0 21 3 44zM164 234q-2 -16 -2 -32q0 -54 30 -92q39 -50 113 -50t127 49.5t64 124.5q2 16 2 32q0 54 -30 92q-39 50 -114 50 q-74 0 -126.5 -49.5t-63.5 -124.5zM222 580l131 144h91l92 -144h-81l-65 102l-92 -102h-76z" />
<glyph unicode="&#xf5;" horiz-adv-x="594" d="M80 234q15 109 95 177.5t189 68.5t170 -68q49 -55 49 -137q0 -19 -3 -41q-16 -109 -96 -177.5t-189 -68.5t-170 68q-48 55 -48 134q0 21 3 44zM164 234q-2 -16 -2 -32q0 -54 30 -92q39 -50 113 -50t127 49.5t64 124.5q2 16 2 32q0 54 -30 92q-39 50 -114 50 q-74 0 -126.5 -49.5t-63.5 -124.5zM261 592h-48q13 43 43.5 73.5t71.5 30.5q27 0 81 -23q38 -17 51 -17q36 0 54 44h48q-31 -104 -107 -104q-30 0 -78 21q-45 19 -64 19q-34 0 -52 -44z" />
<glyph unicode="&#xf6;" horiz-adv-x="594" d="M80 234q15 109 95 177.5t189 68.5t170 -68q49 -55 49 -137q0 -19 -3 -41q-16 -109 -96 -177.5t-189 -68.5t-170 68q-48 55 -48 134q0 21 3 44zM164 234q-2 -16 -2 -32q0 -54 30 -92q39 -50 113 -50t127 49.5t64 124.5q2 16 2 32q0 54 -30 92q-39 50 -114 50 q-74 0 -126.5 -49.5t-63.5 -124.5zM296 700q22 0 36 -16q12 -13 12 -30q0 -4 -1 -8q-3 -22 -21 -38t-41 -16q-22 0 -35 16q-12 12 -12 30q0 4 1 8q3 22 21 38t40 16zM494 700q22 0 36 -16q12 -13 12 -30q0 -4 -1 -8q-3 -22 -21 -38t-41 -16q-22 0 -35 16q-12 12 -12 30 q0 4 1 8q3 22 21 38t40 16z" />
<glyph unicode="&#xf7;" horiz-adv-x="666" d="M110 270l9 66h522l-9 -66h-522zM342 468q3 24 22 40.5t43 16.5q23 0 37 -17q13 -14 13 -32q0 -4 -1 -8q-4 -24 -23 -40.5t-42 -16.5t-38 17q-12 13 -12 31q0 4 1 9zM295 138q4 24 23 40.5t42 16.5t38 -17q12 -13 12 -31q0 -4 -1 -9q-3 -24 -22 -40.5t-43 -16.5 q-23 0 -38 17q-12 14 -12 32q0 4 1 8z" />
<glyph unicode="&#xf8;" horiz-adv-x="594" d="M180 130l273 243q-37 35 -99 35q-74 0 -126.5 -49.5t-63.5 -124.5q-2 -16 -2 -31q0 -41 18 -73zM480 338l-274 -243q37 -35 99 -35q74 0 127 49.5t64 124.5q2 16 2 31q0 41 -18 73zM37 2l78 70q-38 50 -38 120q0 20 3 42q15 109 95 177.5t189 68.5q93 0 152 -51l77 69 l29 -32l-76 -69q37 -52 37 -122q0 -20 -3 -41q-16 -109 -96 -177.5t-189 -68.5q-93 0 -150 52l-78 -70z" />
<glyph unicode="&#xf9;" d="M548 468l-50 -357q-3 -24 -6.5 -61.5t-5.5 -49.5h-74q2 13 4.5 38.5t4.5 38.5h-2q-23 -37 -68.5 -63t-100.5 -26q-89 0 -126 52q-28 38 -28 96q0 20 3 43l41 289h78l-40 -281q-2 -16 -2 -30q0 -39 16 -63q22 -34 75 -34q73 0 116 48t55 132l32 228h78zM345 724l84 -144 h-71l-123 144h110z" />
<glyph unicode="&#xfa;" d="M548 468l-50 -357q-3 -24 -6.5 -61.5t-5.5 -49.5h-74q2 13 4.5 38.5t4.5 38.5h-2q-23 -37 -68.5 -63t-100.5 -26q-89 0 -126 52q-28 38 -28 96q0 20 3 43l41 289h78l-40 -281q-2 -16 -2 -30q0 -39 16 -63q22 -34 75 -34q73 0 116 48t55 132l32 228h78zM291 580l124 144 h110l-163 -144h-71z" />
<glyph unicode="&#xfb;" d="M548 468l-50 -357q-3 -24 -6.5 -61.5t-5.5 -49.5h-74q2 13 4.5 38.5t4.5 38.5h-2q-23 -37 -68.5 -63t-100.5 -26q-89 0 -126 52q-28 38 -28 96q0 20 3 43l41 289h78l-40 -281q-2 -16 -2 -30q0 -39 16 -63q22 -34 75 -34q73 0 116 48t55 132l32 228h78zM203 580l131 144 h91l92 -144h-81l-65 102l-92 -102h-76z" />
<glyph unicode="&#xfc;" d="M548 468l-50 -357q-3 -24 -6.5 -61.5t-5.5 -49.5h-74q2 13 4.5 38.5t4.5 38.5h-2q-23 -37 -68.5 -63t-100.5 -26q-89 0 -126 52q-28 38 -28 96q0 20 3 43l41 289h78l-40 -281q-2 -16 -2 -30q0 -39 16 -63q22 -34 75 -34q73 0 116 48t55 132l32 228h78zM277 700 q22 0 36 -16q12 -13 12 -30q0 -4 -1 -8q-3 -22 -21 -38t-41 -16q-22 0 -36 16q-11 12 -11 30q0 4 1 8q3 22 21 38t40 16zM475 700q22 0 36 -16q12 -13 12 -30q0 -4 -1 -8q-3 -22 -21 -38t-41 -16q-22 0 -36 16q-11 12 -11 30q0 4 1 8q3 22 21 38t40 16z" />
<glyph unicode="&#xfd;" horiz-adv-x="482" d="M538 468l-307 -575q-36 -69 -73 -101t-102 -32q-44 0 -68 12l20 68q20 -8 53 -8q35 0 57 19t41 58l45 88l-128 471h91l93 -367h2l191 367h85zM254 580l124 144h110l-163 -144h-71z" />
<glyph unicode="&#xfe;" horiz-adv-x="611" d="M38 -228l138 984h78l-50 -356h2q80 80 179 80q109 0 168 -70q47 -55 47 -134q0 -20 -3 -42q-15 -105 -92.5 -175.5t-176.5 -70.5q-61 0 -105.5 27t-60.5 68h-2l-44 -311h-78zM181 234q-2 -16 -2 -32q0 -54 30 -92q39 -50 113 -50t127 49.5t64 124.5q2 16 2 32 q0 54 -30 92q-39 50 -114 50q-74 0 -126.5 -49.5t-63.5 -124.5z" />
<glyph unicode="&#xff;" horiz-adv-x="482" d="M538 468l-307 -575q-36 -69 -73 -101t-102 -32q-44 0 -68 12l20 68q20 -8 53 -8q35 0 57 19t41 58l45 88l-128 471h91l93 -367h2l191 367h85zM240 700q22 0 36 -16q12 -13 12 -30q0 -4 -1 -8q-3 -22 -21 -38t-41 -16q-22 0 -35 16q-12 12 -12 30q0 4 1 8q3 22 21 38 t40 16zM438 700q22 0 36 -16q12 -13 12 -30q0 -4 -1 -8q-3 -22 -21 -38t-41 -16q-22 0 -35 16q-12 12 -12 30q0 4 1 8q3 22 21 38t40 16z" />
<glyph unicode="&#x152;" horiz-adv-x="963" d="M691 630l-32 -222h282l-11 -78h-282l-35 -252h306l-11 -78h-460q-94 0 -166.5 29.5t-113 79t-56.5 112.5q-11 39 -11 81q0 26 4 52q21 147 139 250.5t304 103.5h454l-11 -78h-300zM529 78l78 552h-66q-149 0 -239.5 -82t-106.5 -194q-3 -21 -3 -41.5t3 -39.5 q6 -39 25.5 -74.5t51 -62.5t80.5 -42.5t111 -15.5h66z" />
<glyph unicode="&#x153;" horiz-adv-x="907" d="M901 210h-361q-2 -12 -2 -24q0 -47 26 -82q32 -44 90 -44q94 0 159 71l53 -46q-89 -97 -222 -97q-116 0 -160 96q-86 -96 -206 -96q-111 0 -168 68q-45 52 -45 131q0 23 4 47q15 107 92 176.5t183 69.5q124 0 182 -94q86 94 190 94q101 0 152 -65q40 -50 40 -128 q0 -25 -4 -52zM153 234q-2 -17 -2 -32q0 -52 25 -91q34 -51 108 -51q77 0 126.5 49.5t60.5 124.5q2 16 2 32q0 52 -27 92q-34 50 -109 50q-76 0 -125 -49.5t-59 -124.5zM549 276h277q1 9 1 18q0 48 -27 78q-33 36 -97 36q-56 0 -100.5 -40.5t-53.5 -91.5z" />
<glyph unicode="&#x178;" horiz-adv-x="594" d="M255 0l43 305l-207 403h107l154 -320l250 320h101l-321 -403l-43 -305h-84zM321 878q22 0 36 -16q12 -13 12 -30q0 -4 -1 -8q-3 -22 -21 -38t-41 -16q-22 0 -36 16q-11 12 -11 30q0 4 1 8q3 22 21 38t40 16zM519 878q22 0 36 -16q12 -13 12 -30q0 -4 -1 -8 q-3 -22 -21 -38t-41 -16q-22 0 -36 16q-11 12 -11 30q0 4 1 8q3 22 21 38t40 16z" />
<glyph unicode="&#x2c6;" horiz-adv-x="240" d="M42 564l132 144h91l91 -144h-81l-64 102l-93 -102h-76z" />
<glyph unicode="&#x2dc;" horiz-adv-x="240" d="M82 576h-48q12 43 43 73.5t72 30.5q28 0 80 -23q5 -2 13 -6t12.5 -6t12 -3.5t14.5 -1.5q36 0 54 44h48q-31 -104 -107 -104q-29 0 -79 21q-43 19 -63 19q-34 0 -52 -44z" />
<glyph unicode="&#x2000;" horiz-adv-x="464" />
<glyph unicode="&#x2001;" horiz-adv-x="928" />
<glyph unicode="&#x2002;" horiz-adv-x="464" />
<glyph unicode="&#x2003;" horiz-adv-x="928" />
<glyph unicode="&#x2004;" horiz-adv-x="309" />
<glyph unicode="&#x2005;" horiz-adv-x="232" />
<glyph unicode="&#x2006;" horiz-adv-x="154" />
<glyph unicode="&#x2007;" horiz-adv-x="154" />
<glyph unicode="&#x2008;" horiz-adv-x="116" />
<glyph unicode="&#x2009;" horiz-adv-x="185" />
<glyph unicode="&#x200a;" horiz-adv-x="51" />
<glyph unicode="&#x2010;" horiz-adv-x="333" d="M73 204l10 72h245l-10 -72h-245z" />
<glyph unicode="&#x2011;" horiz-adv-x="333" d="M73 204l10 72h245l-10 -72h-245z" />
<glyph unicode="&#x2013;" horiz-adv-x="500" d="M539 276l-10 -72h-500l10 72h500z" />
<glyph unicode="&#x2014;" horiz-adv-x="1000" d="M29 204l10 72h1000l-10 -72h-1000z" />
<glyph unicode="&#x2018;" horiz-adv-x="278" d="M126 468l116 240h76l-101 -240h-91z" />
<glyph unicode="&#x2019;" horiz-adv-x="278" d="M318 708l-116 -240h-76l101 240h91z" />
<glyph unicode="&#x201a;" horiz-adv-x="278" d="M232 102l-115 -240h-76l100 240h91z" />
<glyph unicode="&#x201c;" horiz-adv-x="519" d="M153 468l116 240h76l-101 -240h-91zM340 468l116 240h76l-101 -240h-91z" />
<glyph unicode="&#x201d;" horiz-adv-x="519" d="M345 708l-116 -240h-76l101 240h91zM532 708l-116 -240h-76l101 240h91z" />
<glyph unicode="&#x201e;" horiz-adv-x="519" d="M259 102l-115 -240h-76l100 240h91zM446 102l-115 -240h-76l100 240h91z" />
<glyph unicode="&#x2022;" horiz-adv-x="500" d="M123 354q11 74 70 125.5t132 51.5q74 0 118 -52q36 -42 36 -99q0 -12 -2 -26q-11 -74 -70 -125.5t-132 -51.5q-74 0 -118 52q-36 42 -36 99q0 12 2 26z" />
<glyph unicode="&#x2026;" horiz-adv-x="1000" d="M183 114q25 0 40 -18q13 -14 13 -34q0 -4 -1 -8q-4 -24 -24.5 -42t-44.5 -18t-40 18q-12 14 -12 32q0 5 1 10q3 25 23 42.5t45 17.5zM516 114q25 0 40 -18q12 -14 12 -34v-8q-4 -24 -24.5 -42t-44.5 -18t-39 18q-13 14 -13 32q0 5 1 10q3 25 23 42.5t45 17.5zM849 114 q25 0 40 -18q13 -14 13 -34q0 -4 -1 -8q-4 -24 -24.5 -42t-44.5 -18t-40 18q-12 14 -12 32q0 5 1 10q3 25 23 42.5t45 17.5z" />
<glyph unicode="&#x202f;" horiz-adv-x="185" />
<glyph unicode="&#x2039;" horiz-adv-x="314" d="M315 418l-142 -178l92 -178l-60 -36l-113 214l173 214z" />
<glyph unicode="&#x203a;" horiz-adv-x="314" d="M67 62l142 178l-92 178l60 36l113 -214l-173 -214z" />
<glyph unicode="&#x205f;" horiz-adv-x="232" />
<glyph unicode="&#x20ac;" d="M621 684l-31 -70q-43 37 -123 37q-68 0 -123 -44t-88 -128h277l-23 -59h-273q-11 -45 -16 -77l-6 -55h242l-24 -57h-219q6 -176 145 -176q76 0 134 62l40 -45q-31 -37 -82.5 -60.5t-107.5 -23.5q-101 0 -156 62t-59 181h-73l26 57h48q4 38 7 58q4 36 14 74h-66l27 59h58 q43 116 125.5 178.5t183.5 62.5q41 0 81.5 -10.5t61.5 -25.5z" />
<glyph unicode="&#x2122;" horiz-adv-x="990" d="M236 296l48 346h-130l10 66h326l-10 -66h-130l-48 -346h-66zM515 296l58 412h105l79 -313l167 313h102l-58 -412h-66l48 346h-2l-184 -346h-45l-88 346h-2l-48 -346h-66z" />
</font>
</defs>
</svg>
